<?xml version="1.0" encoding="UTF-8"?>
<svg version="1.1" xmlns="http://www.w3.org/2000/svg" width="547" height="456">
<path d="M0 0 C10.97618694 9.73287793 20.79206239 20.21939656 29.42578125 32.07421875 C30.089729 32.97164795 30.089729 32.97164795 30.76708984 33.88720703 C62.80666111 77.47070149 74.45359734 131.06537608 66.3984375 184.4296875 C57.49811129 238.06174625 27.37336271 284.23998145 -16.46484375 316.1875 C-47.02273035 337.95604151 -84.88821435 351.94357986 -122.578125 352.3125 C-123.41071335 352.32229385 -124.2433017 352.33208771 -125.10112 352.34217834 C-143.25012543 352.51174788 -160.84370807 352.44694605 -178.57421875 348.07421875 C-179.46367187 347.85991211 -180.353125 347.64560547 -181.26953125 347.42480469 C-213.15610879 339.53356594 -241.03033394 324.78235591 -265.57421875 303.07421875 C-266.41082031 302.36007812 -267.24742187 301.6459375 -268.109375 300.91015625 C-304.39020746 269.4077749 -328.53237854 223.93896153 -333.57421875 176.07421875 C-333.68378906 175.05972656 -333.79335938 174.04523438 -333.90625 173 C-338.75487565 118.37215102 -324.17507964 66.72152529 -289.57421875 24.07421875 C-286.5330111 20.45665755 -283.33637853 16.99534367 -280.04882812 13.60009766 C-279.02787086 12.54364353 -278.0139873 11.48032458 -277.00585938 10.41162109 C-214.60807654 -55.69499053 -106.72483694 -70.13453165 0 0 Z " fill="#353535" transform="translate(406.57421875,76.92578125)"/>
<path d="M0 0 C0.83402344 0.25523437 1.66804688 0.51046875 2.52734375 0.7734375 C18.12343803 6.14460425 30.30746372 19.39106611 37.5390625 33.8203125 C44.75554808 49.52678112 46 63.37071992 46 81 C9.04 81 -27.92 81 -66 81 C-63.99713231 98.02437533 -62.18844288 112.13969119 -48.390625 123.06640625 C-36.41129526 131.17106578 -23.18029628 132.8845561 -9 131 C-0.44784552 128.91398178 9.17844475 124.65776422 14 117 C15.92547313 113.04980256 17.46794339 109.13191025 19 105 C26.92 105 34.84 105 43 105 C41.50857109 119.91428906 35.06483495 130.38136404 23.625 139.99609375 C10.55859857 149.73307559 -4.84863598 153.58343583 -20.9375 153.375 C-22.0812207 153.36412354 -23.22494141 153.35324707 -24.40332031 153.34204102 C-41.8919983 153.01128883 -58.42137134 147.82648341 -71 135 C-80.16159204 124.10762003 -86.1673592 112.53891984 -89.3125 98.625 C-89.5703125 97.49175293 -89.828125 96.35850586 -90.09375 95.19091797 C-94.92094703 72.48840601 -92.29193699 48.71402059 -79.875 28.77734375 C-68.23874889 11.54114679 -53.69084143 2.50475052 -33.68359375 -2.58984375 C-22.52826046 -4.29480735 -10.65924428 -3.65369029 0 0 Z " fill="#FAFAFA" transform="translate(218,153)"/>
<path d="M0 0 C4.53422786 -0.32406517 9.06160721 -0.55831129 13.60473633 -0.71411133 C15.14499297 -0.77907453 16.6844603 -0.86750221 18.22192383 -0.98071289 C23.40729901 -1.35265963 27.95098686 -1.36065802 33 0 C36.62215654 3.27714399 38.82844862 6.93692056 41.04464722 11.21511841 C42.52953033 13.98931929 44.31968646 16.53984287 46.09765625 19.1328125 C48.08471625 22.13192759 50.06806665 25.13344029 52.04882812 28.13671875 C55.98020017 34.0666349 60.03958795 39.84904879 64.33374023 45.52294922 C65.96964177 47.95486966 67.0243159 50.2451635 68 53 C68.99 53 69.98 53 71 53 C71.34611328 51.96939453 71.34611328 51.96939453 71.69921875 50.91796875 C73.29033514 47.34870765 75.46718297 44.40778986 77.8125 41.3125 C78.80801129 39.97709866 79.8027707 38.64113657 80.796875 37.3046875 C81.31958984 36.6044043 81.84230469 35.90412109 82.38085938 35.18261719 C85.14286093 31.45941244 87.85205973 27.69832116 90.5625 23.9375 C91.10463135 23.18645996 91.6467627 22.43541992 92.20532227 21.66162109 C96.16408168 16.17294941 100.10250128 10.6698971 104.01782227 5.15014648 C106.893337 1.106663 106.893337 1.106663 108 0 C110.21855264 -0.08783542 112.43988496 -0.10694609 114.66015625 -0.09765625 C115.65685585 -0.09553383 115.65685585 -0.09553383 116.6736908 -0.09336853 C118.80333899 -0.08775518 120.93288339 -0.07520054 123.0625 -0.0625 C124.50325369 -0.05748671 125.94400903 -0.05292351 127.38476562 -0.04882812 C130.92321102 -0.03778145 134.46159539 -0.02050792 138 0 C136.66558629 2.82749964 135.16230649 5.29610568 133.3046875 7.80859375 C132.76199219 8.54464844 132.21929687 9.28070313 131.66015625 10.0390625 C131.07105469 10.83054688 130.48195313 11.62203125 129.875 12.4375 C129.25753906 13.27152344 128.64007813 14.10554687 128.00390625 14.96484375 C122.72912954 22.06835066 117.36460778 29.10220158 111.98852539 36.12915039 C105.71469189 44.34196076 99.52976051 52.621929 93.47119141 60.99511719 C92.49119806 62.33061426 91.48799878 63.6493912 90.46240234 64.95019531 C87.78523362 68.08491554 87.78523362 68.08491554 87.19897461 71.95166016 C88.11257534 74.28787172 89.25592828 75.98621757 90.7734375 77.984375 C91.34529785 78.74645264 91.9171582 79.50853027 92.50634766 80.29370117 C93.12300293 81.10427979 93.7396582 81.9148584 94.375 82.75 C98.92219322 88.81427384 103.38092807 94.90705948 107.625 101.1875 C111.69543007 107.19406619 115.97421516 113.00169291 120.3684082 118.77441406 C124.91738984 124.79462768 129.17419173 130.99820434 133.37255859 137.2668457 C136.61064586 142.07618963 140.02762839 146.65506056 143.6862793 151.15454102 C145 153 145 153 145 155 C140.60805472 155.2992677 136.2216503 155.51546389 131.82250977 155.65917969 C130.33089824 155.7191213 128.83998006 155.80072554 127.35083008 155.90527344 C115.12843685 156.74113271 115.12843685 156.74113271 110.3059082 152.79614258 C108.34378774 150.2177441 106.63579743 147.62071394 105.0428772 144.80047607 C103.60698496 142.3214789 101.98520937 139.98899116 100.36027527 137.6312561 C98.21787213 134.51206295 96.14665783 131.34576662 94.0625 128.1875 C93.22494457 126.92360593 92.38705455 125.65993353 91.54882812 124.39648438 C89.87749319 121.87652761 88.20791557 119.35542012 86.53955078 116.83349609 C82.74301156 111.09800808 78.92357916 105.37776618 75.10543823 99.65664673 C73.40278393 97.10499201 71.7014125 94.55248286 70 92 C66.76357487 95.00182356 64.51069076 98.11607079 62.18359375 101.859375 C56.33259591 111.14363144 50.17965443 120.22249231 44.04077148 129.31787109 C42.03937754 132.28427135 40.04205457 135.25338591 38.04492188 138.22265625 C36.77107633 140.11214301 35.49699662 142.00147193 34.22265625 143.890625 C33.32898094 145.22012177 33.32898094 145.22012177 32.41725159 146.57647705 C31.86585007 147.39203064 31.31444855 148.20758423 30.74633789 149.04785156 C30.26274307 149.76507385 29.77914825 150.48229614 29.28089905 151.22125244 C28 153 28 153 26 155 C23.01904297 155.22705078 23.01904297 155.22705078 19.2421875 155.1953125 C18.57913605 155.1924826 17.91608459 155.18965271 17.23294067 155.18673706 C15.11344417 155.17553435 12.99436896 155.15043051 10.875 155.125 C9.43880818 155.11497028 8.00260975 155.10584441 6.56640625 155.09765625 C3.04413372 155.075595 -0.47789203 155.04106494 -4 155 C-2.83087724 151.84811505 -1.63168178 149.22664569 0.43359375 146.57421875 C1.15083618 145.63956787 1.15083618 145.63956787 1.88256836 144.68603516 C2.3956958 144.02651855 2.90882324 143.36700195 3.4375 142.6875 C7.58649009 137.25992957 11.60293966 131.77924381 15.4375 126.125 C20.95262184 118.00668452 26.69697374 110.06483907 32.46289062 102.12353516 C35.17029554 98.38322258 37.85421642 94.62599192 40.51904297 90.85522461 C42.43785858 88.14745637 44.39553605 85.49000014 46.4296875 82.8671875 C47.17476563 81.90039062 47.91984375 80.93359375 48.6875 79.9375 C49.35136719 79.10089844 50.01523437 78.26429688 50.69921875 77.40234375 C52.20079014 75.09514573 52.20079014 75.09514573 51.96875 72.54296875 C50.73102643 69.29394437 49.00134404 67.08159671 46.8125 64.375 C45.8964398 63.22163594 44.98250215 62.06658393 44.0703125 60.91015625 C43.57563477 60.28512207 43.08095703 59.66008789 42.57128906 59.01611328 C39.70329792 55.33620793 36.94870486 51.57281248 34.1875 47.8125 C33.59300049 47.00409668 32.99850098 46.19569336 32.38598633 45.36279297 C27.86423787 39.20258856 23.38512704 33.01218566 18.92382812 26.80810547 C14.11797341 20.13445385 9.23186726 13.52101976 4.31640625 6.92773438 C3.75179688 6.16654297 3.1871875 5.40535156 2.60546875 4.62109375 C2.10168701 3.9448999 1.59790527 3.26870605 1.07885742 2.57202148 C0 1 0 1 0 0 Z " fill="#FBFBFB" transform="translate(275,151)"/>
<path d="M0 0 C9.43632445 7.62637768 14.62718319 15.7546927 17.09765625 27.6953125 C17.09765625 29.6753125 17.09765625 31.6553125 17.09765625 33.6953125 C-11.28234375 33.6953125 -39.66234375 33.6953125 -68.90234375 33.6953125 C-67.49312334 19.60310843 -63.37695066 9.04644452 -52.515625 -0.375 C-36.91535078 -12.08132822 -15.7007148 -11.34098819 0 0 Z " fill="#373737" transform="translate(220.90234375,180.3046875)"/>
<path d="M0 0 C0 0.66 0 1.32 0 2 C-14.02545562 4.91979745 -27.91654822 5.30997838 -42.1875 5.3125 C-43.08822235 5.31572266 -43.9889447 5.31894531 -44.91696167 5.32226562 C-54.16557517 5.34243869 -62.98973738 5.34846928 -72 3 C-72 2.67 -72 2.34 -72 2 C-71.3796286 2.00444122 -70.7592572 2.00888245 -70.12008667 2.01345825 C-63.59749685 2.05809218 -57.07495119 2.08803069 -50.55224609 2.10986328 C-48.12579584 2.11985133 -45.69935741 2.1334464 -43.27294922 2.15087891 C-25.91102203 2.40316557 -25.91102203 2.40316557 -8.70361328 0.43310547 C-5.76362302 -0.03786642 -2.9724886 -0.06971488 0 0 Z " fill="#2C2829" transform="translate(314,424)"/>
<path d="M0 0 C5.9385655 8.90784825 4.12899217 21.9425904 4.0625 32.1875 C4.05746963 33.53450352 4.05290947 34.88150889 4.04882812 36.22851562 C4.03715354 39.48572537 4.02077883 42.74283778 4 46 C3.01 45.67 2.02 45.34 1 45 C1.00523682 44.27635254 1.01047363 43.55270508 1.01586914 42.80712891 C1.10544857 28.4993666 1.04487438 14.27373039 0 0 Z " fill="#312C2E" transform="translate(471,197)"/>
<path d="M0 0 C2.61724095 2.36797991 4.32861729 4.89600354 6 8 C6 8.66 6 9.32 6 10 C6.66 10.33 7.32 10.66 8 11 C8.90031042 12.59989589 9.74522506 14.23113645 10.5625 15.875 C13.5023292 21.45556908 17.11366577 26.03667498 21.2421875 30.78515625 C23 33 23 33 23 35 C23.66 35 24.32 35 25 35 C25 35.66 25 36.32 25 37 C14.06438466 32.87099192 6.17356387 14.49937257 0.75 4.75390625 C0 3 0 3 0 0 Z " fill="#312E2F" transform="translate(94,318)"/>
<path d="M0 0 C1.0209375 0.8353125 1.0209375 0.8353125 2.0625 1.6875 C7.20060151 5.73238842 13.46696772 8 20 8 C20 8.66 20 9.32 20 10 C21.05960938 10.19335938 22.11921875 10.38671875 23.2109375 10.5859375 C24.59903553 10.84855064 25.98705224 11.11159386 27.375 11.375 C28.42300781 11.56449219 28.42300781 11.56449219 29.4921875 11.7578125 C34.7734375 12.7734375 34.7734375 12.7734375 37 15 C32.10492002 15.18368102 28.28630551 14.71524366 23.65625 13.13671875 C22.49222656 12.74419922 21.32820313 12.35167969 20.12890625 11.94726562 C18.33259766 11.32368164 18.33259766 11.32368164 16.5 10.6875 C15.30246094 10.28337891 14.10492188 9.87925781 12.87109375 9.46289062 C7.14452831 7.51281435 1.50876894 5.50324941 -4 3 C-4 2.34 -4 1.68 -4 1 C-2.3125 0.25 -2.3125 0.25 0 0 Z " fill="#2E2A2B" transform="translate(193,409)"/>
<path d="M0 0 C7.36111111 1.80555556 7.36111111 1.80555556 10 5 C10.66 5.33 11.32 5.66 12 6 C12 6.66 12 7.32 12 8 C12.99 8 13.98 8 15 8 C15 8.66 15 9.32 15 10 C15.54527344 10.14695312 16.09054688 10.29390625 16.65234375 10.4453125 C22.89578423 12.30233582 27.75713396 15.17010495 33 19 C30 20 30 20 28.19750977 19.32250977 C27.53549561 18.94924561 26.87348145 18.57598145 26.19140625 18.19140625 C25.44938965 17.77761719 24.70737305 17.36382812 23.94287109 16.9375 C23.15734863 16.48375 22.37182617 16.03 21.5625 15.5625 C20.76150879 15.10746094 19.96051758 14.65242188 19.13525391 14.18359375 C5.30569733 6.24455786 5.30569733 6.24455786 0 2 C0 1.34 0 0.68 0 0 Z " fill="#2E2A2B" transform="translate(155,390)"/>
<path d="M0 0 C0.66 0 1.32 0 2 0 C3.37280273 1.66479492 3.37280273 1.66479492 4.93359375 3.98046875 C5.50013672 4.81513672 6.06667969 5.64980469 6.65039062 6.50976562 C7.24013672 7.39341797 7.82988281 8.27707031 8.4375 9.1875 C9.02337891 10.05181641 9.60925781 10.91613281 10.21289062 11.80664062 C18.07414906 23.45129698 18.07414906 23.45129698 17.6875 26.3125 C17.460625 26.869375 17.23375 27.42625 17 28 C13 21.25 13 21.25 13 19 C12.01 19.33 11.02 19.66 10 20 C9.87625 18.6078125 9.87625 18.6078125 9.75 17.1875 C8.88508253 13.51160074 8.05938298 12.97379547 5 11 C5 10.34 5 9.68 5 9 C4.36096883 7.32254318 3.69658363 5.65438613 3 4 C2.34 4 1.68 4 1 4 C0.67 2.68 0.34 1.36 0 0 Z " fill="#2F2C2D" transform="translate(432,106)"/>
<path d="M0 0 C-1.41231461 3.35882075 -3.03368978 5.13329047 -5.9375 7.3125 C-6.97197266 8.11107422 -6.97197266 8.11107422 -8.02734375 8.92578125 C-8.67832031 9.28027344 -9.32929688 9.63476562 -10 10 C-10.99 9.67 -11.98 9.34 -13 9 C-13.6875 6.9375 -13.6875 6.9375 -14 5 C-13.67 5.66 -13.34 6.32 -13 7 C-9.92294851 7.34157856 -9.92294851 7.34157856 -8.0625 5.1875 C-7.0415625 4.1046875 -7.0415625 4.1046875 -6 3 C-2.35714286 0 -2.35714286 0 0 0 Z " fill="#322D2F" transform="translate(404,380)"/>
<path d="M0 0 C2.78750144 1.39375072 2.89266287 3.16244861 4 6 C4.66 6.66 5.32 7.32 6 8 C6.125 10.625 6.125 10.625 6 13 C6.66 13.33 7.32 13.66 8 14 C7.67 14.66 7.34 15.32 7 16 C6.34 16 5.68 16 5 16 C4.15787744 14.08717875 3.32661136 12.16957527 2.5 10.25 C2.0359375 9.18265625 1.571875 8.1153125 1.09375 7.015625 C0 4 0 4 0 0 Z " fill="#2E2C2C" transform="translate(86,300)"/>
<path d="M0 0 C0 0.66 0 1.32 0 2 C-6.20514474 4.13619737 -11.42684522 5.36517527 -18 5 C-12.33234542 1.948186 -6.43122236 0 0 0 Z " fill="#2D2729" transform="translate(334,419)"/>
<path d="M0 0 C2.61724095 2.36797991 4.32861729 4.89600354 6 8 C6 8.66 6 9.32 6 10 C6.66 10.33 7.32 10.66 8 11 C8 11.99 8 12.98 8 14 C7.34 14 6.68 14 6 14 C4.9923048 12.2335343 3.99408286 10.46166177 3 8.6875 C2.443125 7.70136719 1.88625 6.71523438 1.3125 5.69921875 C0 3 0 3 0 0 Z " fill="#2B2729" transform="translate(94,318)"/>
<path d="M0 0 C0.125 7.625 0.125 7.625 -1 11 C-1.66 11 -2.32 11 -3 11 C-3 11.99 -3 12.98 -3 14 C-3.66 13.67 -4.32 13.34 -5 13 C-4.67 12.13375 -4.34 11.2675 -4 10.375 C-3.01268659 7.04281725 -2.83579026 4.44840462 -3 1 C-1 0 -1 0 0 0 Z " fill="#2E2C2D" transform="translate(469,273)"/>
<path d="M0 0 C0.9435441 2.53899138 1.16906025 3.60909275 0.07421875 6.140625 C-0.61220703 7.18476563 -0.61220703 7.18476563 -1.3125 8.25 C-1.76238281 8.95640625 -2.21226562 9.6628125 -2.67578125 10.390625 C-3.11277344 10.92171875 -3.54976563 11.4528125 -4 12 C-4.66 12 -5.32 12 -6 12 C-4.68139111 7.38486888 -2.78644563 3.90102388 0 0 Z " fill="#2E2C2C" transform="translate(451,320)"/>
<path d="M0 0 C0.66 0 1.32 0 2 0 C1.42676569 3.86933162 -0.38953552 6.15222057 -3 9 C-3.66 9 -4.32 9 -5 9 C-3.7580393 5.56072421 -2.44259716 2.74792181 0 0 Z " fill="#312D2E" transform="translate(437,341)"/>
<path d="M0 0 C0.99 0.495 0.99 0.495 2 1 C2.64158599 3.56634394 3.02199146 6.13823206 3.4375 8.75 C3.623125 9.4925 3.80875 10.235 4 11 C4.66 11.33 5.32 11.66 6 12 C5.01 12.33 4.02 12.66 3 13 C-0.42857143 4.57142857 -0.42857143 4.57142857 0 0 Z " fill="#2A2828" transform="translate(81,286)"/>
<path d="M0 0 C4.67692308 1.47692308 4.67692308 1.47692308 6.3125 4.125 C6.539375 4.74375 6.76625 5.3625 7 6 C5.576875 5.2575 5.576875 5.2575 4.125 4.5 C1.27721834 2.85575631 1.27721834 2.85575631 -1 3 C-0.67 2.01 -0.34 1.02 0 0 Z " fill="#302D2E" transform="translate(391,66)"/>
<path d="M0 0 C0.33 0.66 0.66 1.32 1 2 C0.67 2.99 0.34 3.98 0 5 C-2.31 5 -4.62 5 -7 5 C-2.25 1.125 -2.25 1.125 0 0 Z " fill="#4A4A4A" transform="translate(239,294)"/>
</svg>
